<svg xmlns="http://www.w3.org/2000/svg" viewBox="0 0 960 440" role="img" aria-label="QR-Stempelstation anlegen und Code ausgeben"><rect width="960" height="440" rx="20" fill="#071522"/><text x="32" y="40" fill="#65d9c8" font-family="Arial,Helvetica,sans-serif" font-size="13" font-weight="800">SCHICHTFUNK · HILFE</text><text x="32" y="73" fill="#f1fbff" font-family="Arial,Helvetica,sans-serif" font-size="24" font-weight="700">QR-Stempelstation anlegen und Code ausgeben</text><path d="M32 88H928" stroke="#25445b"/><rect x="30" y="110" width="505" height="296" rx="12" fill="#11273a" stroke="#31546b"/><text x="52" y="142" fill="#65d9c8" font-family="Arial,Helvetica,sans-serif" font-size="15" font-weight="800">QR-STEMPELSTATIONEN</text><text x="52" y="171" fill="#fff" font-family="Arial,Helvetica,sans-serif" font-size="18" font-weight="700">Beginn, Pausen &amp; Ende per QR-Code</text><rect x="52" y="193" width="185" height="42" rx="12" fill="#091a2b" stroke="#31546b"/><text x="66" y="220" fill="#eaf6ff" font-family="Arial,Helvetica,sans-serif" font-size="15" font-weight="500">Objekt A</text><rect x="246" y="193" width="169" height="42" rx="12" fill="#091a2b" stroke="#31546b"/><text x="260" y="220" fill="#eaf6ff" font-family="Arial,Helvetica,sans-serif" font-size="15" font-weight="500">Haupteingang</text><rect x="423" y="193" width="92" height="42" rx="12" fill="#1da991" stroke="#1da991"/><text x="438" y="220" fill="#062329" font-family="Arial,Helvetica,sans-serif" font-size="14" font-weight="700">＋ Anlegen</text><circle cx="504" cy="196" r="18" fill="#35dfc4"/><text x="499" y="202" fill="#062329" font-family="Arial,Helvetica,sans-serif" font-size="18" font-weight="800">1</text><rect x="52" y="259" width="462" height="118" rx="12" fill="#0c1d2d" stroke="#31546b"/><text x="70" y="288" fill="#fff" font-family="Arial,Helvetica,sans-serif" font-size="17" font-weight="700">Objekt A  ·  ● Aktiv</text><text x="70" y="313" fill="#afc4d4" font-family="Arial,Helvetica,sans-serif" font-size="14" font-weight="500">Standort: Haupteingang</text><rect x="70" y="332" width="119" height="33" rx="7" fill="#169c86" stroke="#169c86"/><text x="80" y="354" fill="#062329" font-family="Arial,Helvetica,sans-serif" font-size="14" font-weight="700">QR anzeigen</text><rect x="198" y="332" width="114" height="33" rx="7" fill="#142c40" stroke="#31546b"/><text x="210" y="354" fill="#eaf6ff" font-family="Arial,Helvetica,sans-serif" font-size="14" font-weight="500">QR erneuern</text><circle cx="183" cy="329" r="18" fill="#35dfc4"/><text x="178" y="335" fill="#062329" font-family="Arial,Helvetica,sans-serif" font-size="18" font-weight="800">2</text><rect x="559" y="110" width="370" height="296" rx="12" fill="#11273a" stroke="#31546b"/><text x="582" y="143" fill="#fff" font-family="Arial,Helvetica,sans-serif" font-size="19" font-weight="700">Aktueller QR-Code</text><rect x="582" y="159" width="146" height="146" rx="4" fill="#ecf7f4" stroke="#ecf7f4"/><rect x="595" y="172" width="27" height="27" rx="1" fill="#183748" stroke="#183748"/><rect x="688" y="172" width="27" height="27" rx="1" fill="#183748" stroke="#183748"/><rect x="595" y="265" width="27" height="27" rx="1" fill="#183748" stroke="#183748"/><rect x="640" y="205" width="12" height="12" rx="1" fill="#183748" stroke="#183748"/><rect x="668" y="235" width="12" height="12" rx="1" fill="#183748" stroke="#183748"/><rect x="635" y="270" width="11" height="11" rx="1" fill="#183748" stroke="#183748"/><text x="746" y="192" fill="#fff" font-family="Arial,Helvetica,sans-serif" font-size="16" font-weight="700">Objekt A</text><text x="746" y="216" fill="#a7bdcd" font-family="Arial,Helvetica,sans-serif" font-size="14" font-weight="500">Haupteingang</text><text x="582" y="330" fill="#afc4d4" font-family="Arial,Helvetica,sans-serif" font-size="14" font-weight="500">Aktuellen Code für den Standort ausgeben.</text><rect x="582" y="348" width="150" height="38" rx="12" fill="#142c40" stroke="#31546b"/><text x="602" y="372" fill="#eaf6ff" font-family="Arial,Helvetica,sans-serif" font-size="14" font-weight="500">PNG speichern</text><rect x="742" y="348" width="124" height="38" rx="12" fill="#159f8c" stroke="#159f8c"/><text x="770" y="372" fill="#062329" font-family="Arial,Helvetica,sans-serif" font-size="14" font-weight="700">Drucken</text><circle cx="875" cy="353" r="18" fill="#35dfc4"/><text x="870" y="359" fill="#062329" font-family="Arial,Helvetica,sans-serif" font-size="18" font-weight="800">3</text></svg>